# This file uses centimeters as units for non-parametric coordinates.

mtllib Gatling_gun.mtl
g default
v -0.607469 0.001657 0.734461
v -0.462959 -0.142853 0.734461
v -0.462959 0.001657 0.878972
v 0.462962 -0.142853 0.734461
v 0.607472 0.001657 0.734461
v 0.462962 0.001657 0.878972
v -0.462959 1.072088 0.734461
v -0.607469 0.927578 0.734461
v -0.462959 0.927578 0.878972
v 0.607472 0.927578 0.734461
v 0.462962 1.072088 0.734461
v 0.462962 0.927578 0.878972
v -0.607469 0.926373 -0.335970
v -0.462453 1.072088 -0.335970
v 0.462456 1.072088 -0.335970
v 0.607472 0.926373 -0.335970
v -0.462445 -0.142853 -0.335970
v -0.607469 0.001657 -0.335970
v 0.607472 0.001657 -0.335970
v 0.462448 -0.142853 -0.335970
v -0.474665 0.721399 -0.694148
v -0.329359 0.867812 -0.694148
v 0.329362 0.867812 -0.694148
v 0.474668 0.721399 -0.694148
v 0.474668 0.004774 -0.694148
v 0.324856 -0.142853 -0.694148
v -0.324853 -0.142853 -0.694148
v -0.474665 0.004774 -0.694148
v -0.434156 0.729095 -1.439131
v -0.330154 0.867812 -1.439131
v 0.434159 0.729095 -1.439131
v 0.330157 0.867812 -1.439131
v 0.143759 0.085615 -1.445383
v 0.422370 0.227623 -1.445946
v -0.422367 0.227623 -1.445946
v -0.143756 0.085615 -1.445383
v 0.366705 0.750972 -1.559512
v 0.202748 0.675480 -1.649061
v 0.318887 0.823536 -1.553123
v 0.210273 0.164114 -1.568062
v 0.177743 0.319995 -1.681429
v 0.335882 0.226882 -1.566833
v -0.210270 0.164114 -1.568062
v -0.335879 0.226882 -1.566833
v -0.177740 0.319995 -1.681429
v -0.318884 0.823536 -1.553123
v -0.202745 0.675480 -1.649061
v -0.366703 0.750972 -1.559512
v -0.780239 0.984274 -0.293380
v -0.493874 0.697910 -0.293380
v -0.780239 0.984274 0.655200
v -0.493874 0.697910 0.655200
v -0.538271 1.226242 0.655200
v -0.251906 0.939878 0.655200
v -0.538271 1.226242 -0.293380
v -0.251906 0.939878 -0.293380
v -0.620157 1.870297 -0.326268
v -1.214354 1.996597 -0.326268
v -1.620831 1.545158 -0.326268
v -1.433112 0.967420 -0.326268
v -0.838916 0.841119 -0.326268
v -0.432439 1.292558 -0.326268
v -0.620157 1.870297 0.717041
v -1.214354 1.996597 0.717041
v -1.620831 1.545158 0.717041
v -1.433112 0.967420 0.717041
v -0.838916 0.841119 0.717041
v -0.432439 1.292558 0.717041
v -1.026635 1.418858 -0.326268
v -1.026635 1.418858 0.717041
vt 0.542051 0.536886
vt 0.537457 0.477978
vt 0.654597 0.477973
vt 0.650012 0.536889
vt 0.687845 0.537274
vt 0.677177 0.479231
vt 0.802083 0.487833
vt 0.800391 0.543593
vt 0.831332 0.548473
vt 0.831735 0.490553
vt 0.360327 0.490552
vt 0.360728 0.548473
vt 0.391671 0.543592
vt 0.389974 0.487834
vt 0.514891 0.479226
vt 0.504212 0.537276
vt 0.834743 0.337126
vt 0.987940 0.194625
vt 0.806902 0.309705
vt 0.667845 0.314418
vt 0.524216 0.314418
vt 0.385157 0.309705
vt 0.386676 0.339068
vt 0.513768 0.342114
vt 0.678285 0.342112
vt 0.805389 0.339069
vt 0.534464 0.342273
vt 0.657601 0.342277
vt 0.655288 0.184700
vt 0.659190 0.272706
vt 0.792839 0.151851
vt 0.680731 0.151851
vt 0.814379 0.272706
vt 0.818280 0.184700
vt 0.709832 0.307480
vt 0.763737 0.307480
vt 0.678506 0.183778
vt 0.683337 0.268021
vt 0.787605 0.171889
vt 0.685963 0.171889
vt 0.790232 0.268021
vt 0.795064 0.183778
vt 0.703032 0.280366
vt 0.770537 0.280366
vt 0.762688 0.251731
vt 0.710881 0.251731
vt 0.705965 0.198035
vt 0.767604 0.198035
vt 0.424921 0.662939
vt 0.376745 0.672140
vt 0.894365 0.536070
vt 0.767139 0.662939
vt 0.682289 0.661823
vt 0.652234 0.662322
vt 0.539825 0.662322
vt 0.509771 0.661823
vt 0.845133 0.194627
vt 0.845133 0.163105
vt 0.987940 0.163107
vt 0.357315 0.337127
vt 0.815316 0.672140
vt 0.866434 0.414964
vt 0.966640 0.414965
vt 0.938709 0.536068
vt 0.845212 0.359722
vt 0.987861 0.359721
vt 0.987940 0.020299
vt 0.845133 0.020299
vt 0.544977 0.701317
vt 0.591005 0.701551
vt 0.590457 0.809360
vt 0.544432 0.809134
vt 0.590258 0.848250
vt 0.544231 0.848020
vt 0.589710 0.956061
vt 0.543684 0.955833
vt 0.589514 0.994958
vt 0.543488 0.994719
vt 0.766392 0.703868
vt 0.821639 0.703868
vt 0.821642 0.798724
vt 0.766416 0.798742
vt 0.876867 0.703850
vt 0.876890 0.798723
vt 0.932106 0.703848
vt 0.932117 0.798711
vt 0.987340 0.703837
vt 0.987355 0.798703
vt 0.655926 0.703890
vt 0.711166 0.703881
vt 0.711176 0.798741
vt 0.655942 0.798754
vt 0.925198 0.993785
vt 0.829121 0.973363
vt 0.894845 0.900369
vt 0.990922 0.920791
vt 0.960570 0.827374
vt 0.864492 0.806952
vt 0.798768 0.879947
vt 0.760548 0.973448
vt 0.664471 0.993870
vt 0.694824 0.900453
vt 0.598746 0.920875
vt 0.629099 0.827459
vt 0.725177 0.807037
vt 0.790901 0.880032
vn 0.000000 0.973881 -0.227061
vn 0.000000 0.994388 -0.105794
vn 0.000000 0.994388 -0.105794
vn 0.000000 0.973881 -0.227061
vn 0.979842 -0.004963 -0.199713
vn 0.998039 0.000000 -0.062592
vn 0.996448 0.000000 -0.084213
vn 0.980691 -0.005100 -0.195499
vn 0.000000 -0.990186 -0.139759
vn 0.000000 -1.000000 -0.000000
vn 0.000000 -1.000000 -0.000000
vn 0.000000 -0.990186 -0.139759
vn -0.980691 -0.005100 -0.195499
vn -0.996448 0.000000 -0.084213
vn -0.998039 0.000000 -0.062592
vn -0.979842 -0.004963 -0.199713
vn 0.000000 -1.000000 -0.000000
vn 0.000000 -1.000000 -0.000000
vn 0.000000 0.000000 1.000000
vn 0.000000 0.000000 1.000000
vn 0.000000 0.000000 1.000000
vn 0.000000 0.000000 1.000000
vn -1.000000 0.000000 0.000000
vn -1.000000 0.000000 0.000000
vn 1.000000 0.000000 0.000000
vn 1.000000 0.000000 0.000000
vn 0.000000 1.000000 -0.000000
vn 0.000000 1.000000 -0.000000
vn -0.997951 -0.009304 -0.063310
vn -0.997951 -0.009304 -0.063310
vn 0.000000 1.000000 0.000000
vn 0.000000 1.000000 0.000000
vn 0.997951 -0.009304 -0.063310
vn 0.997951 -0.009304 -0.063310
vn 0.000000 -0.956734 -0.290965
vn 0.000000 -0.956734 -0.290965
vn -0.706477 -0.707736 -0.000169
vn -0.706477 -0.707736 -0.000169
vn -0.704621 -0.707046 -0.059957
vn -0.703691 -0.706428 -0.076013
vn 0.000000 -0.707108 0.707106
vn 0.000000 -0.707108 0.707106
vn 0.000000 -0.707108 0.707106
vn 0.000000 -0.707108 0.707106
vn -0.707107 0.000000 0.707107
vn -0.707107 0.000000 0.707107
vn -0.707107 0.000000 0.707107
vn -0.707107 0.000000 0.707107
vn 0.706477 -0.707736 -0.000170
vn 0.706477 -0.707736 -0.000170
vn 0.703692 -0.706428 -0.076013
vn 0.704622 -0.707046 -0.059957
vn 0.707107 0.000000 0.707107
vn 0.707107 0.000000 0.707107
vn 0.707107 0.000000 0.707107
vn 0.707107 0.000000 0.707107
vn -0.707958 0.706255 -0.000565
vn -0.707958 0.706255 -0.000565
vn -0.707958 0.706255 -0.000565
vn -0.707958 0.706255 -0.000565
vn 0.000000 0.707108 0.707106
vn 0.000000 0.707108 0.707106
vn 0.000000 0.707108 0.707106
vn 0.000000 0.707108 0.707106
vn 0.707959 0.706254 -0.000565
vn 0.707959 0.706254 -0.000565
vn 0.707959 0.706254 -0.000565
vn 0.707959 0.706254 -0.000565
vn -0.590355 0.586704 -0.554310
vn -0.590355 0.586704 -0.554310
vn -0.590355 0.586704 -0.554310
vn -0.590355 0.586704 -0.554310
vn 0.590355 0.586704 -0.554310
vn 0.590355 0.586704 -0.554310
vn 0.590355 0.586704 -0.554310
vn 0.590355 0.586704 -0.554310
vn -0.574992 -0.760091 -0.302731
vn -0.568810 -0.763831 -0.304987
vn 0.568810 -0.763831 -0.304987
vn 0.574992 -0.760091 -0.302731
vn -0.752708 0.658143 -0.016663
vn -0.752709 0.658143 -0.016663
vn -0.752709 0.658143 -0.016663
vn -0.752709 0.658143 -0.016663
vn 0.752709 0.658143 -0.016663
vn 0.752709 0.658143 -0.016663
vn 0.752709 0.658143 -0.016663
vn 0.752709 0.658143 -0.016663
vn 0.411921 -0.827758 -0.380970
vn 0.652692 -0.640575 -0.404544
vn -0.652692 -0.640575 -0.404544
vn -0.411921 -0.827758 -0.380970
vn -0.841600 -0.027534 -0.539398
vn -0.697496 0.006514 -0.716559
vn -0.691492 -0.243946 -0.679948
vn 0.017014 0.795612 -0.605568
vn -0.017014 0.795612 -0.605568
vn 0.000000 0.932156 -0.362058
vn 0.000000 0.932156 -0.362058
vn 0.691492 -0.243946 -0.679948
vn 0.697496 0.006514 -0.716559
vn 0.841600 -0.027534 -0.539398
vn -0.138761 -0.750111 -0.646590
vn 0.138761 -0.750111 -0.646590
vn -0.577350 -0.577352 0.577350
vn -0.577350 -0.577352 0.577350
vn -0.577350 -0.577352 0.577350
vn 0.577350 -0.577352 0.577350
vn 0.577350 -0.577352 0.577350
vn 0.577350 -0.577352 0.577350
vn -0.577350 0.577352 0.577349
vn -0.577350 0.577352 0.577349
vn -0.577350 0.577352 0.577349
vn 0.577350 0.577352 0.577350
vn 0.577350 0.577352 0.577350
vn 0.577350 0.577352 0.577350
vn 0.767246 0.560736 -0.311302
vn 0.767246 0.560736 -0.311302
vn 0.767246 0.560736 -0.311302
vn 0.767246 0.560736 -0.311302
vn -0.767246 0.560736 -0.311302
vn -0.767246 0.560736 -0.311302
vn -0.767246 0.560736 -0.311302
vn -0.767246 0.560736 -0.311302
vn 0.183395 -0.125472 -0.974999
vn -0.183395 -0.125472 -0.974999
vn -0.173341 0.235984 -0.956172
vn 0.173341 0.235984 -0.956172
vn -0.707107 -0.707107 0.000000
vn -0.707107 -0.707107 0.000000
vn -0.707107 -0.707107 0.000000
vn -0.707107 -0.707107 0.000000
vn 0.000000 0.000000 1.000000
vn 0.000000 0.000000 1.000000
vn 0.000000 0.000000 1.000000
vn 0.000000 0.000000 1.000000
vn 0.707106 0.707107 0.000000
vn 0.707106 0.707107 0.000000
vn 0.707106 0.707107 0.000000
vn 0.707106 0.707107 0.000000
vn 0.000000 0.000000 -1.000000
vn 0.000000 0.000000 -1.000000
vn 0.000000 0.000000 -1.000000
vn 0.000000 0.000000 -1.000000
vn 0.207911 0.978148 0.000000
vn 0.207911 0.978148 0.000000
vn 0.207911 0.978148 0.000000
vn 0.207911 0.978148 0.000000
vn -0.743145 0.669131 0.000000
vn -0.743145 0.669131 0.000000
vn -0.743145 0.669131 0.000000
vn -0.743145 0.669131 0.000000
vn -0.951057 -0.309017 0.000000
vn -0.951057 -0.309017 0.000000
vn -0.951057 -0.309017 0.000000
vn -0.951057 -0.309017 0.000000
vn -0.207912 -0.978148 0.000000
vn -0.207912 -0.978148 0.000000
vn -0.207912 -0.978148 0.000000
vn -0.207912 -0.978148 0.000000
vn 0.743145 -0.669131 0.000000
vn 0.743145 -0.669131 0.000000
vn 0.743145 -0.669131 0.000000
vn 0.743145 -0.669131 0.000000
vn 0.951057 0.309017 0.000000
vn 0.951057 0.309017 0.000000
vn 0.951057 0.309017 0.000000
vn 0.951057 0.309017 0.000000
vn -0.000000 0.000000 -1.000000
vn 0.000000 0.000000 -1.000000
vn -0.000000 0.000000 -1.000000
vn -0.000000 0.000000 -1.000000
vn 0.000000 0.000000 -1.000000
vn 0.000000 0.000000 -1.000000
vn 0.000000 0.000000 -1.000000
vn 0.000000 0.000000 1.000000
vn 0.000000 0.000000 1.000000
vn 0.000000 0.000000 1.000000
vn 0.000000 0.000000 1.000000
vn 0.000000 0.000000 1.000000
vn 0.000000 0.000000 1.000000
vn -0.000000 0.000000 1.000000
s 1
g gatling_gun
usemtl lambert7SG
f 22/1/1 14/2/2 15/3/3 23/4/4
s 2
f 24/5/5 16/6/6 19/7/7 25/8/8
s 3
f 26/62/9 20/65/10 17/66/11 27/63/12
s 4
f 28/13/13 18/14/14 13/15/15 21/16/16
s 3
f 20/65/10 4/57/17 2/18/18 17/66/11
s off
f 6/58/19 12/68/20 9/67/21 3/59/22
s 4
f 18/14/14 1/23/23 8/24/24 13/15/15
s 2
f 16/6/6 10/25/25 5/26/26 19/7/7
s 1
f 14/2/2 7/27/27 11/28/28 15/3/3
s 4
f 21/16/16 29/56/29 35/49/30 28/13/13
s 1
f 23/4/4 32/54/31 30/55/32 22/1/1
s 2
f 25/8/8 34/52/33 31/53/34 24/5/5
s 3
f 27/63/12 36/64/35 33/51/36 26/62/9
s 5
f 2/60/37 1/23/38 18/14/39 17/11/40
s off
f 3/59/41 2/18/42 4/57/43 6/58/44
f 1/23/45 3/22/46 9/21/47 8/24/48
s 5
f 5/26/49 4/17/50 20/10/51 19/7/52
s off
f 6/19/53 5/26/54 10/25/55 12/20/56
f 8/24/57 7/27/58 14/2/59 13/15/60
f 7/27/61 9/21/62 12/20/63 11/28/64
f 11/28/65 10/25/66 16/6/67 15/3/68
f 13/15/69 14/2/70 22/1/71 21/16/72
f 15/3/73 16/6/74 24/5/75 23/4/76
s 5
f 17/11/40 18/14/39 28/13/77 27/12/78
f 19/7/52 20/10/51 26/9/79 25/8/80
s off
f 21/16/81 22/1/82 30/55/83 29/56/84
f 23/4/85 24/5/86 31/53/87 32/54/88
s 5
f 25/8/80 26/9/79 33/61/89 34/52/90
f 27/12/78 28/13/77 35/49/91 36/50/92
f 29/29/93 48/37/94 44/38/95 35/30/91
f 39/39/96 46/40/97 30/32/98 32/31/99
f 42/41/100 37/42/101 31/34/102 34/33/90
f 43/43/103 40/44/104 33/36/89 36/35/92
s off
f 1/23/105 2/60/106 3/22/107
f 4/17/108 5/26/109 6/19/110
f 7/27/111 8/24/112 9/21/113
f 10/25/114 11/28/115 12/20/116
f 31/34/117 37/42/118 39/39/119 32/31/120
s 5
f 33/36/89 40/44/104 42/41/100 34/33/90
f 35/30/91 44/38/95 43/43/103 36/35/92
s off
f 46/40/121 48/37/122 29/29/123 30/32/124
s 5
f 41/45/125 45/46/126 47/47/127 38/48/128
f 38/48/128 37/42/101 42/41/100 41/45/125
f 39/39/96 38/48/128 47/47/127 46/40/97
f 41/45/125 40/44/104 43/43/103 45/46/126
f 45/46/126 44/38/95 48/37/94 47/47/127
f 37/42/101 38/48/128 39/39/96
f 40/44/104 41/45/125 42/41/100
f 43/43/103 44/38/95 45/46/126
f 46/40/97 47/47/127 48/37/94
s off
f 49/69/129 50/70/130 52/71/131 51/72/132
f 51/72/133 52/71/134 54/73/135 53/74/136
f 53/74/137 54/73/138 56/75/139 55/76/140
f 55/76/141 56/75/142 50/77/143 49/78/144
f 57/79/145 58/80/146 64/81/147 63/82/148
f 58/80/149 59/83/150 65/84/151 64/81/152
f 59/83/153 60/85/154 66/86/155 65/84/156
f 60/85/157 61/87/158 67/88/159 66/86/160
f 61/89/161 62/90/162 68/91/163 67/92/164
f 62/90/165 57/79/166 63/82/167 68/91/168
s 11
f 58/93/169 57/94/170 69/95/171
f 59/96/172 58/93/169 69/95/171
f 60/97/173 59/96/172 69/95/171
f 61/98/174 60/97/173 69/95/171
f 62/99/175 61/98/174 69/95/171
f 57/94/170 62/99/175 69/95/171
s 12
f 63/100/176 64/101/177 70/102/178
f 64/101/177 65/103/179 70/102/178
f 65/103/179 66/104/180 70/102/178
f 66/104/180 67/105/181 70/102/178
f 67/105/181 68/106/182 70/102/178
f 68/106/182 63/100/176 70/102/178
