# This file uses centimeters as units for non-parametric coordinates.

mtllib Slow_tower_propeller.mtl
g default
v 0.101877 0.058819 -0.252968
v 0.058819 0.101877 -0.252968
v -0.058819 0.101877 -0.252968
v -0.101875 0.058819 -0.252968
v -0.101875 -0.058819 -0.252968
v -0.058819 -0.101876 -0.252968
v 0.058819 -0.101876 -0.252968
v 0.101877 -0.058819 -0.252968
v 0.101877 0.058819 0.013821
v 0.058819 0.101877 0.013821
v 0.000000 0.117637 0.013821
v -0.058819 0.101877 0.013821
v -0.101875 0.058819 0.013821
v -0.117636 0.000000 0.013821
v -0.101875 -0.058819 0.013821
v -0.058819 -0.101876 0.013821
v 0.000000 -0.117637 0.013821
v 0.058819 -0.101876 0.013821
v 0.101877 -0.058819 0.013821
v 0.117638 0.000000 0.013821
v 0.088230 0.050938 0.133395
v 0.050940 0.088228 0.133395
v 0.000000 0.101877 0.133395
v -0.050938 0.088228 0.133395
v -0.088226 0.050938 0.133395
v -0.101875 0.000000 0.133395
v -0.088226 -0.050938 0.133395
v -0.050938 -0.088228 0.133395
v 0.000000 -0.101876 0.133395
v 0.050940 -0.088228 0.133395
v 0.088230 -0.050938 0.133395
v 0.101877 0.000000 0.133395
v 0.050940 0.029410 0.220929
v 0.029409 0.050938 0.220929
v 0.000000 0.058819 0.220929
v -0.029408 0.050938 0.220929
v -0.050938 0.029410 0.220929
v -0.058819 0.000000 0.220929
v -0.050938 -0.029409 0.220929
v -0.029408 -0.050938 0.220929
v 0.000000 -0.058819 0.220929
v 0.029409 -0.050938 0.220929
v 0.050940 -0.029409 0.220929
v 0.058819 0.000000 0.220929
v 0.000000 0.000000 0.252968
v 0.058819 0.101877 -0.119573
v 0.101877 0.058819 -0.119573
v 0.000000 0.117637 -0.119573
v -0.058819 0.101877 -0.119573
v -0.101875 0.058819 -0.119573
v -0.117636 0.000000 -0.119573
v -0.101875 -0.058819 -0.119573
v -0.058819 -0.101876 -0.119573
v 0.000000 -0.117637 -0.119573
v 0.058819 -0.101876 -0.119573
v 0.101877 -0.058819 -0.119573
v 0.117638 0.000000 -0.119573
v 0.522285 0.584061 -0.155422
v 0.148224 0.756953 -0.155902
v 0.522285 0.584061 -0.217119
v 0.148224 0.756953 -0.216639
v -0.226212 0.498489 -0.164718
v -0.226212 0.498489 -0.207823
v -0.584057 0.522285 -0.155422
v -0.756954 0.148223 -0.155902
v -0.584057 0.522285 -0.217119
v -0.756954 0.148223 -0.216639
v -0.498486 -0.226212 -0.164718
v -0.498486 -0.226212 -0.207823
v -0.522284 -0.584060 -0.155422
v -0.148222 -0.756953 -0.155902
v -0.522284 -0.584060 -0.217119
v -0.148222 -0.756953 -0.216639
v 0.226215 -0.498489 -0.164718
v 0.226215 -0.498489 -0.207823
v 0.584063 -0.522283 -0.155422
v 0.756954 -0.148223 -0.155902
v 0.584063 -0.522283 -0.217119
v 0.756954 -0.148223 -0.216639
v 0.498489 0.226213 -0.164718
v 0.498489 0.226213 -0.207823
vt 0.777252 0.918385
vt 0.791312 0.918385
vt 0.787895 0.944226
vt 0.780699 0.944226
vt 0.805729 0.918385
vt 0.794866 0.944226
vt 0.762929 0.918385
vt 0.777353 0.918385
vt 0.780801 0.944226
vt 0.773840 0.944226
vt 0.791440 0.918385
vt 0.788002 0.944226
vt 0.805861 0.918385
vt 0.794963 0.944226
vt 0.763019 0.918385
vt 0.777434 0.918385
vt 0.780848 0.944226
vt 0.773867 0.944226
vt 0.791512 0.918385
vt 0.788060 0.944226
vt 0.805953 0.918385
vt 0.795059 0.944226
vt 0.763039 0.918385
vt 0.777455 0.918385
vt 0.780877 0.944226
vt 0.773900 0.944226
vt 0.791516 0.918385
vt 0.788066 0.944226
vt 0.805933 0.918385
vt 0.795047 0.944226
vt 0.762838 0.918385
vt 0.773727 0.944226
vt 0.784325 0.953684
vt 0.784407 0.953684
vt 0.784425 0.953685
vt 0.784444 0.953685
vt 0.775485 0.843707
vt 0.793319 0.843707
vt 0.792989 0.883086
vt 0.775708 0.883086
vt 0.811153 0.843707
vt 0.810568 0.883086
vt 0.757605 0.843707
vt 0.775463 0.843707
vt 0.775779 0.883086
vt 0.758186 0.883086
vt 0.793326 0.843707
vt 0.793042 0.883086
vt 0.811163 0.843707
vt 0.810638 0.883086
vt 0.757606 0.843707
vt 0.775478 0.843707
vt 0.775814 0.883086
vt 0.758226 0.883086
vt 0.793335 0.843706
vt 0.793087 0.883086
vt 0.811161 0.843707
vt 0.810640 0.883086
vt 0.757614 0.843707
vt 0.775447 0.843707
vt 0.775782 0.883086
vt 0.758201 0.883086
vt 0.793285 0.843707
vt 0.793062 0.883086
vt 0.811153 0.843707
vt 0.810652 0.883086
vt 0.757614 0.843707
vt 0.758113 0.883086
vt 0.775476 0.804327
vt 0.793475 0.804327
vt 0.678162 0.977231
vt 0.757373 0.946381
vt 0.766499 0.946924
vt 0.676531 0.989492
vt 0.605653 0.922366
vt 0.598925 0.925668
vt 0.775441 0.804327
vt 0.793415 0.804327
vt 0.678162 0.977231
vt 0.757373 0.946381
vt 0.766499 0.946924
vt 0.676532 0.989495
vt 0.605653 0.922366
vt 0.598925 0.925668
vt 0.775326 0.804327
vt 0.793269 0.804327
vt 0.678163 0.977234
vt 0.757376 0.946387
vt 0.766502 0.946927
vt 0.676532 0.989495
vt 0.605653 0.922366
vt 0.598925 0.925668
vt 0.775294 0.804327
vt 0.793295 0.804327
vt 0.678162 0.977231
vt 0.757376 0.946387
vt 0.766502 0.946927
vt 0.676531 0.989492
vt 0.605653 0.922366
vt 0.598925 0.925668
vt 0.654249 0.823652
vt 0.669018 0.821406
vt 0.696307 0.805144
vt 0.639124 0.818528
vt 0.605946 0.809475
vt 0.654249 0.823652
vt 0.669018 0.821406
vt 0.696307 0.805144
vt 0.639121 0.818530
vt 0.605943 0.809481
vt 0.654246 0.823652
vt 0.669015 0.821405
vt 0.696306 0.805142
vt 0.639121 0.818530
vt 0.605943 0.809481
vt 0.654246 0.823652
vt 0.669018 0.821406
vt 0.696307 0.805144
vt 0.639121 0.818530
vt 0.605943 0.809481
vn 0.840244 0.485107 0.242202
vn 0.485106 0.840245 0.242201
vn 0.424675 0.735569 0.527816
vn 0.735572 0.424667 0.527818
vn 0.000000 0.970226 0.242204
vn -0.000000 0.849368 0.527802
vn -0.485119 0.840236 0.242205
vn -0.424690 0.735562 0.527813
vn -0.840238 0.485116 0.242202
vn -0.735567 0.424695 0.527802
vn -0.970227 0.000000 0.242199
vn -0.849369 -0.000000 0.527799
vn -0.840238 -0.485117 0.242202
vn -0.735567 -0.424694 0.527803
vn -0.485119 -0.840236 0.242205
vn -0.424692 -0.735561 0.527814
vn 0.000000 -0.970226 0.242204
vn -0.000000 -0.849368 0.527801
vn 0.485107 -0.840244 0.242201
vn 0.424679 -0.735566 0.527816
vn 0.840244 -0.485107 0.242202
vn 0.735573 -0.424665 0.527818
vn 0.970226 -0.000000 0.242200
vn 0.849361 -0.000000 0.527812
vn -0.000002 -0.000001 1.000000
vn 0.707104 0.707110 0.000000
vn 0.707104 0.707110 0.000000
vn 0.499115 0.864510 0.059212
vn 0.864505 0.499124 0.059211
vn 0.258818 0.965926 0.000000
vn 0.258818 0.965926 0.000000
vn -0.000000 0.998245 0.059215
vn -0.258818 0.965926 0.000000
vn -0.258818 0.965926 0.000000
vn -0.499127 0.864503 0.059216
vn -0.707119 0.707095 0.000000
vn -0.707119 0.707095 0.000000
vn -0.864509 0.499117 0.059215
vn -0.965926 0.258820 0.000000
vn -0.965926 0.258820 0.000000
vn -0.998245 0.000000 0.059214
vn -0.965926 -0.258820 0.000000
vn -0.965926 -0.258820 0.000000
vn -0.864509 -0.499117 0.059215
vn -0.707119 -0.707095 0.000000
vn -0.707119 -0.707095 0.000000
vn -0.499127 -0.864503 0.059216
vn -0.258818 -0.965926 0.000000
vn -0.258818 -0.965926 0.000000
vn 0.000000 -0.998245 0.059215
vn 0.258818 -0.965926 0.000000
vn 0.258818 -0.965926 0.000000
vn 0.499115 -0.864510 0.059212
vn 0.707104 -0.707110 0.000000
vn 0.707104 -0.707110 0.000000
vn 0.864506 -0.499124 0.059211
vn 0.965926 -0.258820 0.000000
vn 0.965926 -0.258820 0.000000
vn 0.998246 -0.000000 0.059211
vn 0.965926 0.258820 0.000000
vn 0.965926 0.258820 0.000000
vn 0.707104 0.707110 0.000000
vn 0.707104 0.707110 0.000000
vn 0.707104 0.707110 0.000000
vn 0.707104 0.707110 0.000000
vn 0.419555 0.907730 0.000000
vn 0.419555 0.907730 0.000000
vn 0.419555 0.907730 0.000000
vn 0.419555 0.907730 0.000000
vn -0.568078 0.822975 0.000000
vn -0.568078 0.822975 0.000000
vn -0.568078 0.822975 0.000000
vn -0.568078 0.822975 0.000000
vn -0.707119 0.707095 0.000000
vn -0.707119 0.707095 0.000000
vn -0.707119 0.707095 0.000000
vn -0.707119 0.707095 0.000000
vn -0.907727 0.419561 0.000000
vn -0.907727 0.419561 0.000000
vn -0.907727 0.419561 0.000000
vn -0.907727 0.419561 0.000000
vn -0.822968 -0.568088 0.000000
vn -0.822968 -0.568088 0.000000
vn -0.822968 -0.568088 0.000000
vn -0.822968 -0.568088 0.000000
vn -0.707119 -0.707095 0.000000
vn -0.707119 -0.707095 0.000000
vn -0.707119 -0.707095 0.000000
vn -0.707119 -0.707095 0.000000
vn -0.419561 -0.907727 0.000000
vn -0.419561 -0.907727 0.000000
vn -0.419561 -0.907727 0.000000
vn -0.419561 -0.907727 0.000000
vn 0.568077 -0.822976 0.000000
vn 0.568077 -0.822976 0.000000
vn 0.568077 -0.822976 0.000000
vn 0.568077 -0.822976 0.000000
vn 0.707104 -0.707110 0.000000
vn 0.707104 -0.707110 0.000000
vn 0.707104 -0.707110 0.000000
vn 0.707104 -0.707110 0.000000
vn 0.907732 -0.419551 0.000000
vn 0.907732 -0.419551 0.000000
vn 0.907732 -0.419551 0.000000
vn 0.907732 -0.419551 0.000000
vn 0.822974 0.568079 0.000000
vn 0.822974 0.568079 0.000000
vn 0.822974 0.568079 0.000000
vn 0.822974 0.568079 0.000000
vn -0.023025 0.064583 0.997647
vn 0.021731 0.052403 0.998390
vn 0.021731 0.052403 0.998390
vn -0.004741 0.059622 0.998210
vn 0.720961 -0.692975 0.000000
vn 0.720962 -0.692975 0.000000
vn 0.720961 -0.692975 0.000000
vn 0.720961 -0.692975 0.000000
vn -0.068946 0.076950 0.994648
vn -0.068946 0.076950 0.994648
vn -0.921306 -0.388839 0.000000
vn -0.921306 -0.388839 0.000000
vn -0.921306 -0.388839 0.000000
vn -0.921306 -0.388839 0.000000
vn -0.064583 -0.023025 0.997647
vn -0.052401 0.021729 0.998390
vn -0.052401 0.021729 0.998390
vn -0.059621 -0.004742 0.998210
vn 0.692978 0.720959 0.000000
vn 0.692978 0.720959 0.000000
vn 0.692978 0.720959 0.000000
vn 0.692978 0.720959 0.000000
vn -0.076951 -0.068945 0.994648
vn -0.076951 -0.068945 0.994648
vn 0.388846 -0.921303 0.000000
vn 0.388846 -0.921303 0.000000
vn 0.388846 -0.921303 0.000000
vn 0.388846 -0.921303 0.000000
vn 0.023025 -0.064583 0.997647
vn -0.021731 -0.052402 0.998390
vn -0.021731 -0.052402 0.998390
vn 0.004741 -0.059622 0.998210
vn -0.720966 0.692970 0.000000
vn -0.720966 0.692971 0.000000
vn -0.720966 0.692970 0.000000
vn -0.720966 0.692970 0.000000
vn 0.068944 -0.076950 0.994648
vn 0.068944 -0.076950 0.994648
vn 0.921303 0.388847 0.000000
vn 0.921303 0.388847 0.000000
vn 0.921302 0.388847 0.000000
vn 0.921303 0.388847 0.000000
vn 0.064583 0.023025 0.997647
vn 0.052401 -0.021730 0.998390
vn 0.052401 -0.021730 0.998390
vn 0.059622 0.004742 0.998210
vn -0.692972 -0.720964 0.000000
vn -0.692972 -0.720964 0.000000
vn -0.692972 -0.720964 0.000000
vn -0.692972 -0.720964 0.000000
vn 0.076950 0.068944 0.994648
vn 0.076950 0.068944 0.994648
vn -0.388845 0.921303 0.000000
vn -0.388845 0.921303 0.000000
vn -0.388845 0.921303 0.000000
vn -0.388845 0.921303 0.000000
s 1
g slow_tower_propeller polySurface116
usemtl initialShadingGroup
f 21/1/1 22/2/2 34/3/3 33/4/4
f 22/2/2 23/5/5 35/6/6 34/3/3
f 23/7/5 24/8/7 36/9/8 35/10/6
f 24/8/7 25/11/9 37/12/10 36/9/8
f 25/11/9 26/13/11 38/14/12 37/12/10
f 26/15/11 27/16/13 39/17/14 38/18/12
f 27/16/13 28/19/15 40/20/16 39/17/14
f 28/19/15 29/21/17 41/22/18 40/20/16
f 29/23/17 30/24/19 42/25/20 41/26/18
f 30/24/19 31/27/21 43/28/22 42/25/20
f 31/27/21 32/29/23 44/30/24 43/28/22
f 32/31/23 21/1/1 33/4/4 44/32/24
f 33/4/4 34/3/3 45/33/25
f 34/3/3 35/6/6 45/33/25
f 35/10/6 36/9/8 45/34/25
f 36/9/8 37/12/10 45/34/25
f 37/12/10 38/14/12 45/34/25
f 38/18/12 39/17/14 45/35/25
f 39/17/14 40/20/16 45/35/25
f 40/20/16 41/22/18 45/35/25
f 41/26/18 42/25/20 45/36/25
f 42/25/20 43/28/22 45/36/25
f 43/28/22 44/30/24 45/36/25
f 44/32/24 33/4/4 45/33/25
f 47/37/26 46/38/27 10/39/28 9/40/29
f 46/38/30 48/41/31 11/42/32 10/39/28
f 48/43/33 49/44/34 12/45/35 11/46/32
f 49/44/36 50/47/37 13/48/38 12/45/35
f 50/47/39 51/49/40 14/50/41 13/48/38
f 51/51/42 52/52/43 15/53/44 14/54/41
f 52/52/45 53/55/46 16/56/47 15/53/44
f 53/55/48 54/57/49 17/58/50 16/56/47
f 54/59/51 55/60/52 18/61/53 17/62/50
f 55/60/54 56/63/55 19/64/56 18/61/53
f 56/63/57 57/65/58 20/66/59 19/64/56
f 57/67/60 47/37/61 9/40/29 20/68/59
f 21/1/1 9/40/29 10/39/28 22/2/2
f 22/2/2 10/39/28 11/42/32 23/5/5
f 23/7/5 11/46/32 12/45/35 24/8/7
f 24/8/7 12/45/35 13/48/38 25/11/9
f 25/11/9 13/48/38 14/50/41 26/13/11
f 26/15/11 14/54/41 15/53/44 27/16/13
f 27/16/13 15/53/44 16/56/47 28/19/15
f 28/19/15 16/56/47 17/58/50 29/21/17
f 29/23/17 17/62/50 18/61/53 30/24/19
f 30/24/19 18/61/53 19/64/56 31/27/21
f 31/27/21 19/64/56 20/66/59 32/29/23
f 32/31/23 20/68/59 9/40/29 21/1/1
s off
f 46/38/62 47/37/63 1/69/64 2/70/65
f 59/71/66 58/72/67 60/73/68 61/74/69
f 62/75/70 59/71/71 61/74/72 63/76/73
f 50/47/74 49/44/75 3/77/76 4/78/77
f 65/79/78 64/80/79 66/81/80 67/82/81
f 68/83/82 65/79/83 67/82/84 69/84/85
f 53/55/86 52/52/87 5/85/88 6/86/89
f 71/87/90 70/88/91 72/89/92 73/90/93
f 74/91/94 71/87/95 73/90/96 75/92/97
f 56/63/98 55/60/99 7/93/100 8/94/101
f 77/95/102 76/96/103 78/97/104 79/98/105
f 80/99/106 77/95/107 79/98/108 81/100/109
s 2
f 48/101/110 46/102/111 58/72/112 59/71/113
s off
f 46/102/114 2/103/115 60/73/116 58/72/117
s 2
f 49/104/118 48/101/110 59/71/113 62/75/119
s off
f 3/105/120 49/104/121 62/75/122 63/76/123
s 3
f 51/106/124 50/107/125 64/80/126 65/79/127
s off
f 50/107/128 4/108/129 66/81/130 64/80/131
s 3
f 52/109/132 51/106/124 65/79/127 68/83/133
s off
f 5/110/134 52/109/135 68/83/136 69/84/137
s 4
f 54/111/138 53/112/139 70/88/140 71/87/141
s off
f 53/112/142 6/113/143 72/89/144 70/88/145
s 4
f 55/114/146 54/111/138 71/87/141 74/91/147
s off
f 7/115/148 55/114/149 74/91/150 75/92/151
s 5
f 57/116/152 56/117/153 76/96/154 77/95/155
s off
f 56/117/156 8/118/157 78/97/158 76/96/159
s 5
f 47/119/160 57/116/152 77/95/155 80/99/161
s off
f 1/120/162 47/119/163 80/99/164 81/100/165
