# This file uses centimeters as units for non-parametric coordinates.

mtllib Gatling_gun_base.mtl
g default
v -0.321414 0.000000 0.556706
v 0.321414 0.000000 0.556706
v 0.642828 0.000000 0.000000
v 0.321414 0.000000 -0.556706
v -0.321414 0.000000 -0.556706
v -0.642828 0.000000 0.000000
v -0.371277 0.229582 0.643071
v 0.371277 0.229582 0.643071
v 0.742554 0.229582 0.000000
v 0.371277 0.229582 -0.643071
v -0.371277 0.229582 -0.643071
v -0.742554 0.229582 0.000000
v -0.321414 0.459163 0.556706
v 0.321414 0.459163 0.556706
v 0.642828 0.459163 0.000000
v 0.321414 0.459163 -0.556706
v -0.321414 0.459163 -0.556706
v -0.642828 0.459163 0.000000
v 0.000000 0.000000 0.000000
v 0.000000 0.459163 0.000000
v -0.208809 0.353441 -0.121755
v 0.208809 0.353441 -0.121755
v -0.234324 0.329711 -0.403651
v 0.234324 0.329711 -0.403651
v -0.200000 1.668447 0.082700
v -0.167759 1.418343 0.291021
v 0.200000 1.668447 0.082700
v 0.167759 1.418343 0.291021
v -0.188257 1.442072 -0.039686
v -0.200000 1.668447 -0.062708
v 0.188257 1.442072 -0.039686
v 0.200000 1.668447 -0.062708
v 0.000000 1.418343 0.291021
v 0.000000 0.353441 -0.121755
v 0.000000 1.668447 -0.062708
v 0.000000 1.668447 0.082700
v 0.000000 0.329711 -0.403651
v 0.000000 1.442072 -0.039686
v -0.691400 1.088333 -0.335654
v -0.691400 1.475913 -0.335654
v -0.691400 1.669703 -0.000000
v -0.691400 1.475913 0.335654
v -0.691400 1.088333 0.335654
v -0.691400 0.894543 0.000000
v 0.691400 1.088333 -0.335654
v 0.691400 1.475913 -0.335654
v 0.691400 1.669703 -0.000000
v 0.691400 1.475913 0.335654
v 0.691400 1.088333 0.335654
v 0.691400 0.894543 0.000000
v -0.691400 1.282123 0.000000
v 0.691400 1.282123 0.000000
vt 0.099196 0.928755
vt 0.181143 0.928755
vt 0.187653 0.959588
vt 0.099197 0.959588
vt 0.017250 0.928755
vt 0.099196 0.928755
vt 0.099197 0.959588
vt 0.010739 0.959588
vt 0.181143 0.928755
vt 0.187653 0.959588
vt 0.017250 0.928755
vt 0.099196 0.928755
vt 0.099197 0.959588
vt 0.010739 0.959588
vt 0.181143 0.928755
vt 0.187653 0.959588
vt 0.017250 0.928755
vt 0.010739 0.959588
vt 0.181143 0.990420
vt 0.099196 0.990420
vt 0.099196 0.990420
vt 0.017250 0.990420
vt 0.181143 0.990420
vt 0.099196 0.990420
vt 0.017250 0.990420
vt 0.181143 0.990420
vt 0.017250 0.990420
vt 0.014427 0.878513
vt 0.014427 0.792182
vt 0.089191 0.835348
vt 0.089191 0.921679
vt 0.163956 0.878513
vt 0.163956 0.792182
vt 0.089191 0.749017
vt 0.014427 0.878513
vt 0.014427 0.792182
vt 0.089191 0.835348
vt 0.089191 0.749017
vt 0.163956 0.792182
vt 0.163956 0.878513
vt 0.089191 0.921679
vt 0.193735 0.744948
vt 0.203883 0.949550
vt 0.232569 0.944173
vt 0.233265 0.743506
vt 0.240231 0.986795
vt 0.277331 0.986098
vt 0.265414 0.963355
vt 0.250721 0.964437
vt 0.313469 0.949931
vt 0.357491 0.744571
vt 0.313104 0.735392
vt 0.279815 0.938954
vt 0.279809 0.938957
vt 0.232565 0.944171
vt 0.233264 0.743499
vt 0.313105 0.735387
vt 0.250734 0.964439
vt 0.265429 0.963358
vt 0.203870 0.949551
vt 0.193734 0.744940
vt 0.240222 0.986800
vt 0.277325 0.986102
vt 0.313464 0.949932
vt 0.357491 0.744568
vt 0.117406 0.729610
vt 0.061082 0.729611
vt 0.061084 0.528666
vt 0.117404 0.528668
vt 0.004761 0.729611
vt 0.004761 0.528667
vt 0.342693 0.729611
vt 0.286370 0.729612
vt 0.286371 0.528666
vt 0.342692 0.528666
vt 0.230050 0.729610
vt 0.230047 0.528667
vt 0.173725 0.729612
vt 0.173728 0.528666
vt 0.500954 0.949023
vt 0.500954 0.859446
vt 0.423377 0.904234
vt 0.423377 0.993812
vt 0.345801 0.949023
vt 0.345801 0.859446
vt 0.423377 0.814657
vt 0.500954 0.859446
vt 0.500954 0.949023
vt 0.423377 0.904234
vt 0.423377 0.993812
vt 0.345801 0.949023
vt 0.345801 0.859446
vt 0.423377 0.814657
vn 0.000000 -0.352094 0.935965
vn 0.000000 -0.352094 0.935965
vn 0.000000 -0.000000 1.000000
vn 0.000000 -0.000000 1.000000
vn 0.810569 -0.352095 0.467982
vn 0.810569 -0.352095 0.467982
vn 0.866025 -0.000000 0.500000
vn 0.866025 -0.000000 0.500000
vn 0.810569 -0.352095 -0.467982
vn 0.810569 -0.352095 -0.467982
vn 0.866026 -0.000000 -0.500000
vn 0.866026 -0.000000 -0.500000
vn 0.000000 -0.352094 -0.935965
vn 0.000000 -0.352094 -0.935965
vn 0.000000 -0.000000 -1.000000
vn 0.000000 -0.000000 -1.000000
vn -0.810569 -0.352095 -0.467982
vn -0.810569 -0.352095 -0.467982
vn -0.866025 -0.000000 -0.500000
vn -0.866025 -0.000000 -0.500000
vn -0.810569 -0.352095 0.467982
vn -0.810569 -0.352095 0.467982
vn -0.866026 -0.000000 0.500000
vn -0.866026 -0.000000 0.500000
vn 0.000000 0.352095 0.935964
vn 0.000000 0.352095 0.935964
vn 0.810569 0.352095 0.467982
vn 0.810569 0.352095 0.467982
vn 0.810569 0.352096 -0.467982
vn 0.810569 0.352096 -0.467982
vn 0.000000 0.352095 -0.935965
vn 0.000000 0.352095 -0.935964
vn -0.810569 0.352095 -0.467982
vn -0.810569 0.352095 -0.467982
vn -0.810569 0.352095 0.467982
vn -0.810569 0.352095 0.467982
vn 0.000000 -1.000000 0.000000
vn 0.000000 -1.000000 0.000000
vn 0.000000 -1.000000 0.000000
vn 0.000000 -1.000000 0.000000
vn 0.000000 -1.000000 0.000000
vn 0.000000 -1.000000 0.000000
vn 0.000000 -1.000000 0.000000
vn 0.000000 1.000000 0.000000
vn 0.000000 1.000000 0.000000
vn 0.000000 1.000000 0.000000
vn 0.000000 1.000000 -0.000000
vn 0.000000 1.000000 0.000000
vn 0.000000 1.000000 0.000000
vn 0.000000 1.000000 0.000000
vn -0.000000 -0.361417 0.932404
vn -0.000000 -0.361417 0.932404
vn -0.000000 -0.361417 0.932404
vn -0.000000 -0.361417 0.932404
vn 0.000000 1.000000 0.000000
vn 0.000000 1.000000 0.000000
vn 0.000000 1.000000 0.000000
vn 0.000000 1.000000 0.000000
vn 0.000000 0.310977 -0.950418
vn 0.000000 0.310977 -0.950418
vn 0.000000 0.310977 -0.950418
vn 0.000000 0.310977 -0.950418
vn 0.997105 0.013178 0.074892
vn 0.997105 0.013178 0.074892
vn 0.997105 0.013178 0.074892
vn 0.997105 0.013178 0.074892
vn -0.997105 0.013179 0.074891
vn -0.997105 0.013179 0.074891
vn -0.997105 0.013179 0.074891
vn -0.997105 0.013179 0.074891
vn 0.000000 0.640004 0.768372
vn 0.000000 0.640004 0.768372
vn 0.000000 0.640004 0.768372
vn 0.000000 0.640004 0.768372
vn -0.000000 -0.101175 -0.994869
vn -0.000000 -0.101175 -0.994869
vn -0.000000 -0.101175 -0.994869
vn -0.000000 -0.101175 -0.994869
vn -0.996564 -0.072927 0.039270
vn -0.996564 -0.072927 0.039270
vn -0.996564 -0.072927 0.039270
vn -0.996564 -0.072927 0.039270
vn 0.996564 -0.072925 0.039271
vn 0.996564 -0.072925 0.039271
vn 0.996564 -0.072925 0.039271
vn 0.996564 -0.072925 0.039271
vn 0.000000 -0.361417 0.932404
vn 0.000000 -0.361417 0.932404
vn 0.000000 -0.361417 0.932404
vn 0.000000 -0.361417 0.932404
vn 0.000000 0.640004 0.768372
vn 0.000000 0.640004 0.768372
vn 0.000000 0.640004 0.768372
vn 0.000000 0.640004 0.768372
vn 0.000000 1.000000 0.000000
vn 0.000000 1.000000 0.000000
vn 0.000000 1.000000 0.000000
vn 0.000000 1.000000 0.000000
vn 0.000000 -0.101175 -0.994869
vn 0.000000 -0.101175 -0.994869
vn 0.000000 -0.101175 -0.994869
vn 0.000000 -0.101175 -0.994869
vn 0.000000 0.310977 -0.950418
vn 0.000000 0.310977 -0.950418
vn 0.000000 0.310977 -0.950418
vn 0.000000 0.310977 -0.950417
vn 0.000000 -0.000000 -1.000000
vn 0.000000 -0.000000 -1.000000
vn 0.000000 -0.000000 -1.000000
vn 0.000000 -0.000000 -1.000000
vn 0.000000 0.866026 -0.500000
vn 0.000000 0.866026 -0.500000
vn 0.000000 0.866026 -0.500000
vn 0.000000 0.866026 -0.500000
vn 0.000000 0.866026 0.500000
vn 0.000000 0.866026 0.500000
vn 0.000000 0.866026 0.500000
vn 0.000000 0.866026 0.500000
vn 0.000000 0.000000 1.000000
vn 0.000000 0.000000 1.000000
vn 0.000000 0.000000 1.000000
vn 0.000000 0.000000 1.000000
vn 0.000000 -0.866026 0.500000
vn 0.000000 -0.866026 0.500000
vn 0.000000 -0.866026 0.500000
vn 0.000000 -0.866026 0.500000
vn 0.000000 -0.866025 -0.500000
vn 0.000000 -0.866025 -0.500000
vn 0.000000 -0.866025 -0.500000
vn 0.000000 -0.866025 -0.500000
vn -1.000000 0.000000 0.000000
vn -1.000000 0.000000 0.000000
vn -1.000000 0.000000 0.000000
vn -1.000000 0.000000 0.000000
vn -1.000000 0.000000 0.000000
vn -1.000000 0.000000 0.000000
vn -1.000000 0.000000 0.000000
vn 1.000000 0.000000 0.000000
vn 1.000000 0.000000 0.000000
vn 1.000000 0.000000 0.000000
vn 1.000000 -0.000000 0.000000
vn 1.000000 0.000000 0.000000
vn 1.000000 0.000000 0.000000
vn 1.000000 0.000000 0.000000
s 1
g gatling_gun_base
usemtl lambert17SG
f 1/1/1 2/2/2 8/3/3 7/4/4
s 2
f 2/5/5 3/6/6 9/7/7 8/8/8
s 3
f 3/6/9 4/9/10 10/10/11 9/7/12
s 4
f 4/11/13 5/12/14 11/13/15 10/14/16
s 5
f 5/12/17 6/15/18 12/16/19 11/13/20
s 6
f 6/17/21 1/1/22 7/4/23 12/18/24
s 1
f 7/4/4 8/3/3 14/19/25 13/20/26
s 2
f 8/8/8 9/7/7 15/21/27 14/22/28
s 3
f 9/7/12 10/10/11 16/23/29 15/21/30
s 4
f 10/14/16 11/13/15 17/24/31 16/25/32
s 5
f 11/13/20 12/16/19 18/26/33 17/24/34
s 6
f 12/18/24 7/4/23 13/20/35 18/27/36
s 7
f 2/28/37 1/29/38 19/30/39
f 3/31/40 2/28/37 19/30/39
f 4/32/41 3/31/40 19/30/39
f 5/33/42 4/32/41 19/30/39
f 6/34/43 5/33/42 19/30/39
f 1/29/38 6/34/43 19/30/39
s 8
f 13/35/44 14/36/45 20/37/46
f 14/36/45 15/38/47 20/37/46
f 15/38/47 16/39/48 20/37/46
f 16/39/48 17/40/49 20/37/46
f 17/40/49 18/41/50 20/37/46
f 18/41/50 13/35/44 20/37/46
s off
f 34/42/51 33/43/52 26/44/53 21/45/54
f 36/46/55 35/47/56 30/48/57 25/49/58
f 38/50/59 37/51/60 23/52/61 29/53/62
f 31/54/63 28/55/64 22/56/65 24/57/66
f 21/45/67 26/44/68 29/53/69 23/52/70
f 33/43/71 36/46/72 25/49/73 26/44/74
f 35/47/75 38/50/76 29/53/77 30/48/78
f 25/49/79 30/48/80 29/53/81 26/44/82
f 27/58/83 28/55/84 31/54/85 32/59/86
f 33/60/87 34/61/88 22/56/89 28/55/90
f 36/62/91 33/60/92 28/55/93 27/58/94
f 35/63/95 36/62/96 27/58/97 32/59/98
f 38/64/99 35/63/100 32/59/101 31/54/102
f 37/65/103 38/64/104 31/54/105 24/57/106
f 39/66/107 40/67/108 46/68/109 45/69/110
f 40/67/111 41/70/112 47/71/113 46/68/114
f 41/72/115 42/73/116 48/74/117 47/75/118
f 42/73/119 43/76/120 49/77/121 48/74/122
f 43/76/123 44/78/124 50/79/125 49/77/126
f 44/78/127 39/66/128 45/69/129 50/79/130
s 9
f 40/80/131 39/81/132 51/82/133
f 41/83/134 40/80/131 51/82/133
f 42/84/135 41/83/134 51/82/133
f 43/85/136 42/84/135 51/82/133
f 44/86/137 43/85/136 51/82/133
f 39/81/132 44/86/137 51/82/133
s 10
f 45/87/138 46/88/139 52/89/140
f 46/88/139 47/90/141 52/89/140
f 47/90/141 48/91/142 52/89/140
f 48/91/142 49/92/143 52/89/140
f 49/92/143 50/93/144 52/89/140
f 50/93/144 45/87/138 52/89/140
