# This file uses centimeters as units for non-parametric coordinates.

mtllib piercing_towerWeapon_base.mtl
g default
v -0.321414 0.000000 0.534211
v 0.321414 0.000000 0.534211
v 0.642828 0.000000 -0.022495
v 0.321414 0.000000 -0.579202
v -0.321414 0.000000 -0.579202
v -0.642828 0.000000 -0.022495
v -0.371277 0.229582 0.620576
v 0.371277 0.229582 0.620576
v 0.742554 0.229582 -0.022495
v 0.371277 0.229582 -0.665566
v -0.371277 0.229582 -0.665566
v -0.742554 0.229582 -0.022495
v -0.321414 0.459163 0.534211
v 0.321414 0.459163 0.534211
v 0.642828 0.459163 -0.022495
v 0.321414 0.459163 -0.579202
v -0.321414 0.459163 -0.579202
v -0.642828 0.459163 -0.022495
v 0.000000 0.000000 -0.022495
v 0.000000 0.459163 -0.022495
v -0.208809 0.319240 -0.008619
v 0.208809 0.319240 -0.008619
v -0.248940 0.319240 -0.450195
v 0.248940 0.319240 -0.450195
v -0.200000 1.668447 0.060205
v -0.167759 1.452544 0.132894
v 0.200000 1.668447 0.060205
v 0.167759 1.452544 0.132894
v -0.200000 1.452544 -0.157892
v -0.200000 1.668447 -0.085203
v 0.200000 1.452544 -0.157892
v 0.200000 1.668447 -0.085203
v 0.000000 1.452544 0.132894
v 0.000000 0.319240 -0.008619
v 0.000000 1.668447 -0.085203
v 0.000000 1.668447 0.060205
v 0.000000 0.319240 -0.450195
v 0.000000 1.452544 -0.157892
vt 0.544017 0.735191
vt 0.845774 0.735191
vt 0.869749 0.848727
vt 0.544021 0.848727
vt 0.242265 0.735191
vt 0.544018 0.735191
vt 0.544021 0.848727
vt 0.218289 0.848727
vt 0.845774 0.735191
vt 0.869749 0.848727
vt 0.242264 0.735191
vt 0.544018 0.735191
vt 0.544021 0.848727
vt 0.218289 0.848727
vt 0.845774 0.735191
vt 0.869749 0.848727
vt 0.242265 0.735191
vt 0.218289 0.848727
vt 0.845774 0.962263
vt 0.544018 0.962263
vt 0.544018 0.962263
vt 0.242265 0.962263
vt 0.845774 0.962263
vt 0.544018 0.962263
vt 0.242265 0.962263
vt 0.845774 0.962263
vt 0.242265 0.962263
vt 0.431176 0.550183
vt 0.431176 0.232281
vt 0.706486 0.391232
vt 0.706486 0.709133
vt 0.981797 0.550182
vt 0.981797 0.232282
vt 0.706486 0.073331
vt 0.431176 0.550183
vt 0.431176 0.232281
vt 0.706486 0.391232
vt 0.706486 0.073331
vt 0.981797 0.232282
vt 0.981797 0.550182
vt 0.706486 0.709133
vt 0.015621 0.078738
vt 0.041997 0.610525
vt 0.116557 0.596549
vt 0.118365 0.074990
vt 0.136472 0.707330
vt 0.232899 0.705516
vt 0.201926 0.646406
vt 0.163737 0.649217
vt 0.326827 0.611514
vt 0.441244 0.077757
vt 0.325877 0.053899
vt 0.239354 0.582985
vt 0.239339 0.582992
vt 0.116547 0.596545
vt 0.118364 0.074972
vt 0.325879 0.053888
vt 0.163771 0.649224
vt 0.201964 0.646412
vt 0.041965 0.610527
vt 0.015619 0.078715
vt 0.136448 0.707341
vt 0.232884 0.705527
vt 0.326814 0.611519
vt 0.441246 0.077750
vn 0.000000 -0.352094 0.935965
vn 0.000000 -0.352094 0.935965
vn 0.000000 -0.000000 1.000000
vn 0.000000 -0.000000 1.000000
vn 0.810569 -0.352094 0.467982
vn 0.810569 -0.352094 0.467982
vn 0.866025 -0.000000 0.500000
vn 0.866025 -0.000000 0.500000
vn 0.810569 -0.352095 -0.467982
vn 0.810569 -0.352095 -0.467982
vn 0.866026 -0.000000 -0.500000
vn 0.866026 -0.000000 -0.500000
vn 0.000000 -0.352094 -0.935965
vn 0.000000 -0.352094 -0.935965
vn 0.000000 -0.000000 -1.000000
vn 0.000000 -0.000000 -1.000000
vn -0.810569 -0.352095 -0.467982
vn -0.810569 -0.352095 -0.467982
vn -0.866025 -0.000000 -0.500000
vn -0.866025 -0.000000 -0.500000
vn -0.810569 -0.352095 0.467982
vn -0.810569 -0.352095 0.467982
vn -0.866026 -0.000000 0.500000
vn -0.866026 -0.000000 0.500000
vn 0.000000 0.352095 0.935965
vn 0.000000 0.352095 0.935964
vn 0.810569 0.352095 0.467982
vn 0.810569 0.352095 0.467982
vn 0.810569 0.352096 -0.467982
vn 0.810569 0.352096 -0.467982
vn 0.000000 0.352095 -0.935964
vn 0.000000 0.352095 -0.935964
vn -0.810569 0.352095 -0.467982
vn -0.810569 0.352095 -0.467982
vn -0.810569 0.352095 0.467982
vn -0.810569 0.352095 0.467982
vn 0.000000 -1.000000 0.000000
vn 0.000000 -1.000000 0.000000
vn 0.000000 -1.000000 0.000000
vn 0.000000 -1.000000 0.000000
vn 0.000000 -1.000000 0.000000
vn 0.000000 -1.000000 0.000000
vn 0.000000 -1.000000 0.000000
vn 0.000000 1.000000 0.000000
vn 0.000000 1.000000 0.000000
vn 0.000000 1.000000 0.000000
vn 0.000000 1.000000 0.000000
vn 0.000000 1.000000 0.000000
vn 0.000000 1.000000 0.000000
vn 0.000000 1.000000 0.000000
vn -0.000000 -0.123906 0.992294
vn -0.000000 -0.123906 0.992294
vn -0.000000 -0.123906 0.992294
vn -0.000000 -0.123906 0.992294
vn 0.000000 1.000000 0.000000
vn 0.000000 1.000000 0.000000
vn 0.000000 1.000000 0.000000
vn 0.000000 1.000000 0.000000
vn 0.000000 0.249747 -0.968311
vn 0.000000 0.249747 -0.968311
vn 0.000000 0.249747 -0.968311
vn 0.000000 0.249747 -0.968311
vn 0.994940 0.020684 0.098320
vn 0.994940 0.020684 0.098320
vn 0.994940 0.020684 0.098320
vn 0.994940 0.020684 0.098320
vn -0.994940 0.020684 0.098319
vn -0.994940 0.020684 0.098319
vn -0.994940 0.020684 0.098319
vn -0.994940 0.020684 0.098319
vn 0.000000 0.319078 0.947729
vn 0.000000 0.319078 0.947729
vn 0.000000 0.319078 0.947729
vn 0.000000 0.319078 0.947729
vn -0.000000 0.319078 -0.947729
vn -0.000000 0.319078 -0.947729
vn -0.000000 0.319078 -0.947729
vn -0.000000 0.319078 -0.947729
vn -0.994526 -0.074257 0.073509
vn -0.994526 -0.074257 0.073509
vn -0.994526 -0.074257 0.073509
vn -0.994526 -0.074257 0.073509
vn 0.994526 -0.074257 0.073510
vn 0.994526 -0.074257 0.073510
vn 0.994526 -0.074257 0.073510
vn 0.994526 -0.074257 0.073510
vn 0.000000 -0.123906 0.992294
vn 0.000000 -0.123906 0.992294
vn 0.000000 -0.123906 0.992294
vn 0.000000 -0.123906 0.992294
vn 0.000000 0.319078 0.947729
vn 0.000000 0.319078 0.947729
vn 0.000000 0.319078 0.947729
vn 0.000000 0.319078 0.947729
vn 0.000000 1.000000 0.000000
vn 0.000000 1.000000 0.000000
vn 0.000000 1.000000 0.000000
vn 0.000000 1.000000 0.000000
vn 0.000000 0.319078 -0.947729
vn 0.000000 0.319078 -0.947729
vn 0.000000 0.319078 -0.947729
vn 0.000000 0.319078 -0.947729
vn 0.000000 0.249747 -0.968311
vn 0.000000 0.249747 -0.968311
vn 0.000000 0.249747 -0.968311
vn 0.000000 0.249747 -0.968311
s 1
g Piercing_tower_base1
usemtl lambert7SG
f 1/1/1 2/2/2 8/3/3 7/4/4
s 2
f 2/5/5 3/6/6 9/7/7 8/8/8
s 3
f 3/6/9 4/9/10 10/10/11 9/7/12
s 4
f 4/11/13 5/12/14 11/13/15 10/14/16
s 5
f 5/12/17 6/15/18 12/16/19 11/13/20
s 6
f 6/17/21 1/1/22 7/4/23 12/18/24
s 1
f 7/4/4 8/3/3 14/19/25 13/20/26
s 2
f 8/8/8 9/7/7 15/21/27 14/22/28
s 3
f 9/7/12 10/10/11 16/23/29 15/21/30
s 4
f 10/14/16 11/13/15 17/24/31 16/25/32
s 5
f 11/13/20 12/16/19 18/26/33 17/24/34
s 6
f 12/18/24 7/4/23 13/20/35 18/27/36
s 7
f 2/28/37 1/29/38 19/30/39
f 3/31/40 2/28/37 19/30/39
f 4/32/41 3/31/40 19/30/39
f 5/33/42 4/32/41 19/30/39
f 6/34/43 5/33/42 19/30/39
f 1/29/38 6/34/43 19/30/39
s 8
f 13/35/44 14/36/45 20/37/46
f 14/36/45 15/38/47 20/37/46
f 15/38/47 16/39/48 20/37/46
f 16/39/48 17/40/49 20/37/46
f 17/40/49 18/41/50 20/37/46
f 18/41/50 13/35/44 20/37/46
s off
f 34/42/51 33/43/52 26/44/53 21/45/54
f 36/46/55 35/47/56 30/48/57 25/49/58
f 38/50/59 37/51/60 23/52/61 29/53/62
f 31/54/63 28/55/64 22/56/65 24/57/66
f 21/45/67 26/44/68 29/53/69 23/52/70
f 33/43/71 36/46/72 25/49/73 26/44/74
f 35/47/75 38/50/76 29/53/77 30/48/78
f 25/49/79 30/48/80 29/53/81 26/44/82
f 27/58/83 28/55/84 31/54/85 32/59/86
f 33/60/87 34/61/88 22/56/89 28/55/90
f 36/62/91 33/60/92 28/55/93 27/58/94
f 35/63/95 36/62/96 27/58/97 32/59/98
f 38/64/99 35/63/100 32/59/101 31/54/102
f 37/65/103 38/64/104 31/54/105 24/57/106
